<?xml version="1.0" encoding="iso-8859-1"?>
<!-- Generator: Adobe Illustrator 19.0.0, SVG Export Plug-In . SVG Version: 6.00 Build 0)  -->
<svg xmlns="http://www.w3.org/2000/svg" xmlns:xlink="http://www.w3.org/1999/xlink" version="1.1" id="Layer_1" x="0px" y="0px" viewBox="0 0 439.48 365" style="enable-background:new 0 0 439.48 439.48;" xml:space="preserve" width="512" height="512">
<g>
	<g>
		<path style="fill:#F2F2F2;" d="M353.73,326.894c-16.12-20.12-34.8-38.135-62.59-38.135c-0.41,0-0.83,0-1.24,0.02    c-0.89,0-1.78,0.03-2.66,0.07c-25.75,1.12-48.64,13.31-64,31.93c-5.16,6.25-9.48,13.23-12.76,20.76c-1.31,2.98-2.46,6.05-3.42,9.2    c-2.55,8.22-3.92,16.96-3.92,26.021v0.74h41.6h72.73l17.51-6.73c0-6.88-3.83-5.89,0-11c5.6-7.48,3.1-4.5,13.16-4.5l22.88-15.44    C368.02,333.339,358.15,332.414,353.73,326.894z"/>
		<path style="fill:#E6E6E6;" d="M223.24,320.779c-5.16,6.25-9.48,13.23-12.76,20.76c-1.31,2.98-2.46,6.05-3.42,9.2    c-2.55,8.22-3.92,16.96-3.92,26.021v0.74h41.6v-0.74c0-9.05,0.69-17.78,1.97-26c1.67-10.68,4.33-20.49,7.78-29    c7.77-19.17,19.51-31.771,32.75-32.91C261.49,289.969,238.6,302.159,223.24,320.779z"/>
		<path style="fill:#E6E6E6;" d="M359.105,320.779c5.16,6.25,9.48,13.23,12.76,20.76c1.31,2.98,2.46,6.05,3.42,9.2    c2.55,8.22,3.92,16.96,3.92,26.021v0.74h-41.6v-0.74c0-9.05-0.69-17.78-1.97-26c-1.67-10.68-4.33-20.49-7.78-29    c-7.77-19.17-19.51-31.771-32.75-32.91C320.855,289.969,343.745,302.159,359.105,320.779z"/>
		<path style="fill:#F2F2F2;" d="M81.77,377.499H31.53c0-13.88,11.25-25.13,25.12-25.13C70.53,352.369,81.77,363.619,81.77,377.499z    "/>
		<path style="fill:#E6E6E6;" d="M61.485,352.838c-1.565-0.305-3.18-0.469-4.835-0.469c-13.87,0-25.12,11.25-25.12,25.13h9.667    C41.196,365.273,49.926,355.093,61.485,352.838z"/>
		<path style="fill:#E6E6E6;" d="M379.605,339.894c8.11,8.19,3.375,15.995,3.375,30.605l-35.51,7h-30v-7    c0-6.88,2.26-13.24,6.09-18.35c5.6-7.48,14.52-12.32,24.58-12.32L379.605,339.894z"/>
		<path style="fill:#F2F2F2;" d="M378.14,339.829c16.93,0,30.66,13.73,30.66,30.67v7h-61.33v-7c0-14.61,10.22-26.84,23.9-29.92    C373.55,340.089,375.81,339.829,378.14,339.829z"/>
		<path style="fill:#B3B3B3;" d="M401.8,370.499h-47.33c0-9.26,5.52-17.62,13.66-21.45c1.51-0.71,3.11-1.26,4.78-1.64    c1.71-0.39,3.47-0.58,5.23-0.58C391.19,346.829,401.8,357.449,401.8,370.499z"/>
		<path style="fill:#999999;" d="M381.8,370.499h-27.33c0-9.26,5.52-17.62,13.66-21.45C376.2,352.819,381.8,361.019,381.8,370.499z"/>
		<path style="fill:#F2F2F2;" d="M210.48,341.539c-1.31,2.98-2.46,6.05-3.42,9.2c-2.55,8.22-3.92,16.96-3.92,26.02v0.74H124.4v-0.74    c0-27.75,22.5-50.25,50.25-50.25C188.68,326.509,201.37,332.259,210.48,341.539z"/>
		<path style="fill:#E6E6E6;" d="M186.895,328.021c-3.92-0.982-8.02-1.512-12.245-1.512c-27.75,0-50.25,22.5-50.25,50.25v0.74h24.5    v-0.74C148.9,353.237,165.068,333.494,186.895,328.021z"/>
		<path style="fill:#F2F2F2;" d="M404.01,72.259c2.78,2.78,4.5,6.63,4.5,10.87c0,8.49-6.88,15.37-15.37,15.37H304.4    c-4.24,0-8.09-1.72-10.87-4.5c-2.79-2.78-4.51-6.63-4.51-10.87c0-8.49,6.89-15.37,15.38-15.37h-22.26    c-4.24,0-8.09-1.72-10.87-4.51c-2.78-2.78-4.5-6.62-4.5-10.87c0-8.49,6.88-15.37,15.37-15.37h53c4.25,0,8.1,1.72,10.88,4.5    c2.78,2.78,4.5,6.62,4.5,10.87c0,8.49-6.88,15.38-15.38,15.38h58C397.38,67.759,401.23,69.479,404.01,72.259z"/>
		<path style="fill:#F2F2F2;" d="M264.94,110.509c2.79,2.78,4.51,6.62,4.51,10.87c0,8.49-6.89,15.38-15.38,15.38H120.4    c-4.24,0-8.09-1.72-10.87-4.51c-2.79-2.78-4.51-6.62-4.51-10.87c0-8.49,6.89-15.37,15.38-15.37H37.14    c-4.24,0-8.09-1.72-10.87-4.51c-2.79-2.78-4.51-6.63-4.51-10.87c0-8.49,6.89-15.37,15.38-15.37h114c4.25,0,8.1,1.72,10.88,4.5    c2.78,2.78,4.5,6.63,4.5,10.87c0,8.49-6.88,15.38-15.38,15.38h102.93C258.32,106.009,262.16,107.729,264.94,110.509z"/>
	</g>
	<g>
		<path style="fill:#E6E6E6;" d="M439.48,402.471H0c0-4.43,1.13-8.59,3.12-12.22c1.17-2.14,2.64-4.09,4.35-5.8    c4.61-4.62,10.99-7.47,18.03-7.47h388.48c9.65,0,18.05,5.36,22.38,13.27C438.35,393.881,439.48,398.041,439.48,402.471z"/>
		<path style="fill:#CCCCCC;" d="M439.48,402.471H0c0-4.43,1.13-8.59,3.12-12.22h433.24    C438.35,393.881,439.48,398.041,439.48,402.471z"/>
	</g>
	<circle style="fill:#CCCCCC;" cx="237.313" cy="225.769" r="4"/>
	<circle style="fill:#CCCCCC;" cx="394.647" cy="277.769" r="4"/>
	<circle style="fill:#CCCCCC;" cx="137.313" cy="270.436" r="4"/>
	<circle style="fill:#CCCCCC;" cx="57.98" cy="291.102" r="4"/>
	<circle style="fill:#CCCCCC;" cx="107.313" cy="199.102" r="4"/>
	<circle style="fill:#CCCCCC;" cx="341.313" cy="185.102" r="4"/>
	<circle style="fill:#CCCCCC;" cx="307.313" cy="262.436" r="4"/>
	<circle style="fill:#CCCCCC;" cx="50.647" cy="148.436" r="4"/>
</g>















</svg>
